<svg xmlns="http://www.w3.org/2000/svg" viewBox="0 0 64 64">
  <rect width="64" height="64" rx="14" fill="#0b141d"/>
  <g transform="translate(6.4 4.8) scale(0.8)">
    <path fill="#35c966" d="M20 29.2 29.6 34 20 38.8 10.4 34z"/>
    <path fill="#1e9743" d="M32 23.2 41.6 28 32 32.8 22.4 28zM44 29.2 53.6 34 44 38.8 34.4 34zM32 35.2 41.6 40 32 44.8 22.4 40z"/>
    <path fill="none" stroke="#f3f7f4" stroke-width="2.5" stroke-linecap="round" stroke-linejoin="round" d="M8 41l24 12 24-12M8 47l24 12 24-12"/>
    <path fill="#f3f7f4" fill-rule="evenodd" d="M32 27c0 0-7.5-8.5-7.5-14.5a7.5 7.5 0 0 1 15 0C39.5 18.5 32 27 32 27zm0-11.5a3 3 0 1 0 0-6 3 3 0 0 0 0 6z"/>
  </g>
</svg>
